<svg width="375" height="80" viewBox="0 0 375 80" fill="none" xmlns="http://www.w3.org/2000/svg">
<g clip-path="url(#clip0_1455_356)">
<path d="M113.563 0.111023V66.1527L125.113 64.1131V76.7673C125.113 77.0913 124.881 77.368 124.563 77.424L112.201 79.602C105.14 80.8467 98.6667 75.414 98.6667 68.244V3.85676C98.6667 3.20971 99.1313 2.65607 99.7687 2.54369L113.563 0.111023Z" fill="#FF0A8C"/>
<path fill-rule="evenodd" clip-rule="evenodd" d="M233.38 63.547C232.199 62.0575 231.32 60.4071 230.805 58.5365C230.805 58.5365 271.315 51.3869 275.413 50.6603C276.233 50.527 276.367 50.1737 276.287 49.507C276.205 48.7981 276.142 48.0839 276.08 47.3692C275.945 45.8256 275.811 44.2795 275.473 42.7803C273.387 33.4803 268.28 26.4137 259.533 22.2937C252.96 19.2003 246.013 18.667 238.96 20.187C229.587 22.207 222.64 27.467 218.587 36.2337C215.567 42.767 215.067 49.6337 216.48 56.627C218.253 65.387 222.92 72.1273 230.973 76.2473C238.153 79.914 245.807 80.534 253.64 79.1473C263.093 77.4673 270.08 72.3873 274.227 63.6537C274.822 62.404 275.268 61.0811 275.736 59.6931L275.737 59.6917L275.739 59.6835C275.945 59.072 276.156 58.4464 276.385 57.8103C276.394 57.7877 276.403 57.7614 276.412 57.7347L276.413 57.7333L276.413 57.7316L276.424 57.7003C276.431 57.6797 276.438 57.6599 276.444 57.6423C276.444 57.6423 267.475 59.2269 263.007 60.0137C262.627 60.0803 262.14 60.3737 261.987 60.7003C260.427 64.0203 257.96 66.387 254.587 67.7807C250.673 69.394 246.607 69.554 242.487 68.8073C238.827 68.1407 235.72 66.4937 233.38 63.547ZM261.927 41.4391C261.993 41.6651 262.062 41.8978 262.136 42.139L229.8 47.8403C229.821 47.5232 229.835 47.2185 229.85 46.923C229.882 46.2561 229.912 45.6346 230 45.0203C230.493 41.6203 231.453 38.387 233.513 35.567C236.08 32.0603 239.62 30.2937 243.867 29.787C246.927 29.4203 249.933 29.667 252.827 30.747C257.173 32.3737 259.86 35.607 261.427 39.867C261.611 40.3701 261.763 40.8847 261.927 41.4391Z" fill="#FF0A8C"/>
<path fill-rule="evenodd" clip-rule="evenodd" d="M322.48 73.1867C328.407 77.8467 335.273 79.74 342.727 79.7667C346.807 79.7867 350.8 79.2267 354.64 77.82C362.293 75.02 368 70.0533 371.467 62.6336C374.307 56.5603 375.027 50.2269 373.813 43.6403C373.247 40.5403 372.173 37.6136 370.76 34.8403C369.951 33.2539 368.771 31.8353 367.616 30.4481L367.427 30.2203C364.127 26.2403 360.007 23.3736 355.153 21.5803C348.62 19.1669 341.92 18.8003 335.147 20.2069C328.127 21.6669 322.18 25.0603 317.733 30.7536C312.053 38.0203 310.127 46.2669 311.753 55.3136C313.067 62.6069 316.647 68.6 322.48 73.1867ZM325.329 51.3557C325.287 50.9978 325.252 50.6841 325.213 50.4336C325.347 44.1136 327.087 39.3269 331.22 35.5669C333.927 33.1136 337.18 31.8136 340.78 31.4936C345.38 31.0869 349.707 31.9403 353.46 34.8203C357.067 37.5803 359.147 41.2936 359.973 45.6869C361.04 51.3603 360.067 56.6803 356.54 61.3469C353.7 65.1136 349.813 67.1067 345.133 67.6667C341.893 68.0533 338.753 67.7267 335.76 66.4803C330.48 64.2869 327.32 60.2136 325.9 54.7736C325.581 53.5592 325.437 52.3027 325.329 51.3557Z" fill="#FF0A8C"/>
<path d="M178.124 79.6647L189.14 77.9147C189.592 77.838 189.972 77.534 190.148 77.1113L207.947 34.1948C208.126 33.7633 208.518 33.4569 208.98 33.3873L212.212 32.829C212.701 32.7403 213.063 32.3349 213.063 31.8402V19.4209L205.133 20.8217C200.904 21.5141 197.364 24.4094 195.848 28.4177L183.179 61.9021L167.818 21.4626C167.67 21.0745 167.269 20.8454 166.86 20.9165L153.932 23.1917L177.032 79.0613C177.21 79.4927 177.664 79.7433 178.124 79.6647Z" fill="#FF0A8C"/>
<path d="M297.569 66.1527V0.111023L283.775 2.54369C283.138 2.65607 282.673 3.20971 282.673 3.85676V68.244C282.673 75.414 289.147 80.8467 296.208 79.602L308.569 77.424C308.887 77.368 309.12 77.0913 309.12 76.7673V64.1131L297.569 66.1527Z" fill="#FF0A8C"/>
<path d="M140.546 15.0603C144.6 15.0603 147.886 11.774 147.886 7.72027C147.886 3.66646 144.6 0.380229 140.546 0.380229C136.492 0.380229 133.206 3.66646 133.206 7.72027C133.206 11.774 136.492 15.0603 140.546 15.0603Z" fill="#FF0A8C"/>
<path d="M133.34 24.2509C133.34 23.782 133.677 23.3807 134.138 23.299L147.76 20.8869V76.312C147.76 76.7807 147.423 77.182 146.962 77.264L133.34 79.6733V24.2509Z" fill="#FF0A8C"/>
<path d="M38.6667 78.778C32.4135 78.734 28.3383 76.0987 26.0635 70.25C24.9325 67.34 24.0249 64.3318 23.219 61.3119C22.8105 59.7825 22.1796 58.5133 21.2452 57.5325C20.2643 56.5981 18.9951 55.9672 17.4657 55.5587C14.4459 54.7529 11.4374 53.8452 8.52787 52.7142C2.67909 50.4394 0.0438352 46.3642 0 40.1111C0.0438352 33.8579 2.67909 29.7826 8.52787 27.5079C11.4374 26.3768 14.4459 25.4692 17.4657 24.6633C18.9951 24.2549 20.2643 23.6239 21.2452 22.6895C22.1796 21.7087 22.8105 20.4395 23.219 18.9101C24.0249 15.8903 24.9325 12.8817 26.0635 9.97227C28.3383 4.12345 32.4135 1.4882 38.6667 1.44436C44.9198 1.4882 48.9951 4.12345 51.2699 9.97227C52.4009 12.8817 53.3085 15.8903 54.1143 18.9101C54.5228 20.4395 55.1537 21.7087 56.0881 22.6895C57.069 23.6239 58.3382 24.2549 59.8676 24.6633C62.8874 25.4692 65.8959 26.3768 68.8053 27.5079C74.654 29.7826 77.2893 33.8579 77.3333 40.111C77.2893 46.3641 74.654 50.4394 68.8053 52.7142C65.8959 53.8452 62.8874 54.7529 59.8676 55.5587C58.3382 55.9672 57.069 56.5981 56.0881 57.5325C55.1537 58.5133 54.5228 59.7825 54.1143 61.3119C53.3085 64.3318 52.4009 67.34 51.2699 70.25C48.9951 76.0987 44.9198 78.734 38.6667 78.778Z" fill="#FF0A8C"/>
</g>
<defs>
<clipPath id="clip0_1455_356">
<rect width="374.667" height="80" fill="white"/>
</clipPath>
</defs>
</svg>
