<svg width="195" height="80" viewBox="0 0 195 80" fill="none" xmlns="http://www.w3.org/2000/svg">
<path d="M101.305 11.8704C103.787 11.8704 105.806 9.8524 105.806 7.36995C105.806 4.88749 103.787 2.87789 101.305 2.87789C98.8219 2.87789 96.812 4.88749 96.8036 7.36995C96.8036 9.8524 98.8219 11.8704 101.305 11.8704ZM119.258 51.5474H119.293C121.024 51.5474 122.561 51.1083 123.752 50.5426C124.951 49.9684 125.795 49.3098 126.226 48.7187C126.488 48.3303 126.656 47.8659 126.656 47.3677C126.656 46.9962 126.572 46.6163 126.395 46.2363C125.956 45.3666 125.027 44.9444 124.207 44.9275C124.056 44.9275 123.903 44.9448 123.76 44.978C123.312 45.1048 123 45.2567 122.687 45.358C122.367 45.4678 122.029 45.5437 121.446 45.5437C120.492 45.5437 119.918 45.1722 119.538 44.7922C119.471 44.7162 118.887 43.9901 118.668 43.0781C118.313 41.5752 118.288 39.4305 118.271 37.9275C118.297 37.3786 118.297 7.05732 118.297 6.23829C118.297 5.11527 117.723 4.21179 116.92 3.67985C116.118 3.131 115.105 2.88614 114.1 2.88614C113.078 2.88614 112.048 3.13946 111.237 3.67985C110.418 4.20334 109.81 5.0815 109.818 6.18763V42.0818C109.818 44.0829 110.384 46.4303 111.87 48.3048C113.348 50.1793 115.764 51.5472 119.26 51.5472M136.613 21.9858C138.741 18.946 140.971 18.583 142.018 18.5745C143.732 18.5918 145.472 19.706 145.97 22.3742C146.054 22.8217 146.089 23.2608 146.089 23.683C146.089 25.5237 145.379 27.1196 144.315 28.3354C141.774 31.1556 138.235 31.9578 134.494 32.3546C134.494 32.0253 134.494 31.6876 134.494 31.3498C134.494 28.0568 134.941 24.3416 136.613 21.9858ZM130.998 47.2493C133.785 49.8922 137.585 51.505 142.339 51.505H142.361C144.945 51.505 147.343 51.0574 149.142 50.3144C150.037 49.9344 150.789 49.4869 151.346 48.955C151.895 48.423 152.266 47.7728 152.266 47.0467C152.266 46.9369 152.266 46.8187 152.232 46.7005C152.055 45.4677 151.041 44.6318 149.892 44.6571C149.605 44.6571 149.318 44.6993 149.031 44.7922C147.621 45.2397 146.261 45.4845 144.598 45.4845C144.125 45.4845 143.644 45.4673 143.12 45.4255C139.607 45.1469 137.538 43.036 136.288 40.8744C135.672 39.802 135.266 38.7212 135.03 37.8938C134.92 37.5307 134.844 37.2098 134.794 36.9649C139.598 36.7624 143.753 36.205 147.68 34.1279C149.69 33.0049 152.173 31.1895 153.456 28.6648C154.259 27.0267 154.681 25.1438 154.681 23.4381C154.681 22.8977 154.637 22.3742 154.553 21.8845C153.734 17.2574 149.436 13.7448 142.781 13.7617C138.153 13.7617 132.2 15.5855 128.569 21.2006C127.175 23.3875 125.301 27.584 125.301 32.8867C125.301 34.1532 125.411 35.4788 125.655 36.8552C126.458 40.9419 128.223 44.5981 131.001 47.2494M48.6654 50.1962C49.4676 50.7451 50.4811 50.9899 51.4859 50.9899C52.5078 50.9899 53.538 50.7366 54.3571 50.1962C55.1678 49.6727 55.7759 48.7861 55.7675 47.6884C55.7675 47.6884 55.7675 28.0568 55.7675 27.964C55.8172 26.4441 56.2234 24.4092 57.127 22.8133C58.0391 21.209 59.3479 20.0775 61.4085 20.0691C62.3543 20.0778 63.0044 20.3731 63.5364 20.8459C64.3303 21.5636 64.7948 22.7626 65.0396 23.9785C65.2761 25.1944 65.3013 26.4019 65.3013 27.0858C65.3013 27.2461 65.3013 47.1058 65.3013 47.6378C65.3013 48.7777 65.9179 49.6812 66.7623 50.2047C67.6154 50.7451 68.6792 50.9899 69.7433 50.9899C70.8242 50.9899 71.9135 50.7366 72.7835 50.2047C73.6363 49.6812 74.295 48.803 74.2866 47.6884V27.9471C74.3448 26.4356 74.751 24.4007 75.6462 22.8133C76.5667 21.209 77.8754 20.0775 79.9277 20.0691C80.8735 20.0778 81.5322 20.3731 82.064 20.8459C82.8494 21.5636 83.3224 22.7711 83.5589 23.987C83.8036 25.2029 83.8291 26.4019 83.8291 27.0858C83.8291 27.2461 83.8291 46.3712 83.8291 47.6378C83.8291 48.7777 84.4539 49.6812 85.2983 50.2047C86.143 50.7451 87.2154 50.9899 88.2793 50.9899C89.3602 50.9899 90.4498 50.7366 91.311 50.2047C92.1723 49.6812 92.831 48.803 92.8226 47.6884V28.3186C92.8226 23.4128 91.8599 19.7567 90.0613 17.2827C88.254 14.8087 85.5856 13.6012 82.4441 13.6097C79.4125 13.6097 77.0987 15.0704 75.4773 16.7423C74.3625 17.8906 73.5604 19.1319 73.0284 20.1113C72.2767 18.1439 71.2127 16.6072 69.8531 15.5264C68.2233 14.2345 66.1881 13.6097 63.9081 13.6097C60.0235 13.6183 57.3635 15.9824 55.7337 18.1608V17.9665C55.7337 16.8351 55.1678 15.94 54.3655 15.4081C53.5635 14.8592 52.5584 14.6144 51.5536 14.6144C50.5233 14.6144 49.493 14.8677 48.6823 15.4081C47.8631 15.9316 47.2637 16.8097 47.2637 17.9159C47.2637 17.9159 47.2637 46.8186 47.2637 47.6377C47.2637 48.7607 47.8294 49.6641 48.6317 50.1961M104.138 15.4081C103.336 14.8592 102.331 14.6144 101.318 14.6144C100.296 14.6144 99.2659 14.8677 98.4552 15.4081C97.6361 15.9316 97.0364 16.8097 97.0364 17.9159C97.0364 17.9159 97.0364 46.8186 97.0364 47.6377C97.0364 48.7607 97.6024 49.6641 98.4047 50.1961C99.2067 50.7449 100.22 50.9899 101.225 50.9899C102.247 50.9899 103.277 50.7365 104.088 50.1961C104.907 49.6726 105.515 48.786 105.507 47.6883C105.507 47.6883 105.507 18.7856 105.507 17.9665C105.507 16.8351 104.941 15.94 104.138 15.4081ZM192.115 30.7334C192.08 30.5309 191.946 30.3619 191.752 30.3028C191.557 30.2438 191.346 30.2941 191.203 30.4463C191.203 30.4463 191.084 30.5813 190.831 30.8347C190.587 31.088 190.207 31.468 189.708 31.9408C188.703 32.9034 187.192 34.2797 185.19 35.9263C183.772 37.0999 182.1 38.4087 180.183 39.8103C180.139 39.2531 180.055 38.7296 179.938 38.2398C179.431 36.1796 178.223 34.6175 176.754 33.3678C174.533 31.4933 171.687 30.2605 169.357 28.918C168.183 28.2425 167.152 27.5501 166.384 26.7733C165.616 25.988 165.126 25.1436 164.974 24.0966C164.939 23.9025 164.931 23.6998 164.931 23.4971C164.931 22.4163 165.344 21.2849 166.222 20.4321C166.695 19.9761 168.106 19.0557 170.099 19.0557C172.573 19.0557 174.667 20.1365 175.841 20.1365C177.167 20.1618 178.315 19.385 178.661 18.1016C178.728 17.8483 178.763 17.5865 178.763 17.3332C178.763 15.8725 177.547 14.513 175.892 14.0993C175.892 14.0993 174.397 13.5927 171.239 13.5927C166.839 13.6013 163.233 14.6819 160.7 16.5817C158.167 18.4816 156.739 21.2173 156.739 24.3584C156.739 25.2196 156.85 26.1147 157.06 27.0266C158.015 30.9023 161.832 33.0047 165.353 34.8877C167.126 35.8249 168.858 36.7115 170.15 37.6656C171.458 38.6282 172.286 39.6246 172.464 40.7898C172.489 40.9924 172.505 41.1867 172.505 41.3809C172.505 42.4448 172.074 43.4327 171.162 44.2011C170.241 44.9694 168.789 45.5098 166.737 45.5436H166.542C164.304 45.5522 162.387 44.9019 161.129 44.3531C160.58 44.0913 160.014 43.9647 159.483 43.9647C158.148 43.9474 157.033 44.8597 156.856 46.1854C156.835 46.3121 156.83 46.4387 156.83 46.5653C156.83 47.5195 157.337 48.3047 158.029 48.9127C159.077 49.8246 160.563 50.441 161.973 50.8547C146.418 58.6313 124.817 65.6565 97.4981 65.6565C69.9179 65.6565 48.156 58.4963 32.5754 50.6267C35.7845 50.0188 38.3769 48.7269 40.3109 46.9706C43.0469 44.4966 44.4402 41.1276 44.4318 37.6319C44.4318 36.8382 44.3649 36.0276 44.22 35.217C43.7303 32.5319 42.2693 30.4041 40.3862 28.6647C37.5656 26.0471 33.7908 24.2148 30.641 22.3741C29.0702 21.4537 27.6516 20.5334 26.6044 19.5539C25.5487 18.5745 24.8732 17.5443 24.6706 16.3875C24.6121 16.0751 24.5775 15.7458 24.5775 15.4165C24.5775 13.9304 25.1518 12.343 26.4186 11.1271C27.6768 9.91122 29.6445 9.03307 32.5409 9.02463C34.1117 9.02463 35.9525 9.28638 38.0806 9.90276C38.6971 10.08 39.2629 10.173 39.7865 10.173C41.2473 10.1982 42.3368 9.3877 42.7759 8.23092C42.9358 7.81718 43.0208 7.40343 43.0208 7.00658C43.0208 6.01021 42.4972 5.17428 41.7624 4.58325C41.0278 3.99218 40.082 3.59532 39.0854 3.38423C37.1011 2.98736 34.9477 2.71716 32.6844 2.70874C32.6628 2.70874 32.6433 2.70874 32.6262 2.70874C26.5798 2.70874 22.1884 4.40591 19.3173 6.93904C16.4377 9.4637 15.1034 12.8074 15.1034 15.9991C15.1034 16.7084 15.1704 17.4092 15.298 18.0932C16.1848 22.7541 20.0441 25.7347 23.9793 28.1496C27.9313 30.556 32.0522 32.5065 33.6146 34.7104C34.4674 35.884 34.8727 37.3025 34.8727 38.6705C34.8727 40.0637 34.4421 41.3893 33.6567 42.335C32.1705 44.1251 29.367 45.3325 26.3521 45.3325C24.4436 45.3325 22.4675 44.8597 20.6604 43.7873C20.5588 43.7199 20.2888 43.5761 20.2635 43.5594C15.9314 40.7476 12.4437 38.0963 9.80909 35.9263C7.80767 34.2797 6.30456 32.9034 5.29952 31.9408C4.793 31.468 4.41296 31.088 4.16801 30.8347C3.91465 30.5814 3.7964 30.4463 3.7964 30.4463C3.65372 30.2943 3.44186 30.2438 3.2475 30.3028C3.06158 30.3621 2.91826 30.5307 2.89296 30.7334C2.78279 31.4849 2.70703 32.4306 2.70703 33.5282C2.70703 33.6128 2.70703 33.697 2.70703 33.7816V33.8576C2.75894 36.7032 3.7205 38.8985 6.31298 41.2965C6.93797 41.9298 41.713 77.2836 97.4985 77.292C153.292 77.2834 188.059 41.9298 188.684 41.2965C191.276 38.8985 192.239 36.7032 192.29 33.8576V33.5283C192.29 32.4307 192.214 31.485 192.112 30.7335" fill="#EB7F02"/>
</svg>
