<svg width="287" height="80" viewBox="0 0 287 80" fill="none" xmlns="http://www.w3.org/2000/svg">
<g clip-path="url(#clip0_1455_258)">
<path fill-rule="evenodd" clip-rule="evenodd" d="M0 74.318H18.3721L22.7545 62.1055H46.6888L50.9025 74.318H69.6119L43.8235 6.06018H25.6197L0 74.318ZM173.777 74.318H190.126V6.06018H173.777V74.318ZM169.9 24.7984H153.55V51.3984C153.55 60.265 148.157 62.4396 144.617 62.4396C139.392 62.4396 136.526 60.0976 136.526 53.5729V24.7981H120.177V54.5765C120.177 67.6256 124.391 75.823 138.718 75.823C144.449 75.823 150.853 72.6442 153.887 67.6256H154.056V74.3173H169.9V24.7984ZM118.322 74.318H70.7897L70.621 61.6037L95.5665 37.0113H72.6437V24.6314H116.468V37.0113L91.5221 61.9381H118.322L118.322 74.318ZM34.8908 24.9668H34.7221L26.8003 48.8901H42.4754L34.8908 24.9668Z" fill="#3CB4E5"/>
<path d="M257.013 7.68433H261.748V11.3828H257.013V7.68433Z" fill="#5162AA"/>
<path d="M239.823 47.3071H254.028V62.6291H239.823V47.3071Z" fill="#8C338A"/>
<path d="M249.293 65.8014H258.588V71.437H249.293V65.8014Z" fill="#5D81C1"/>
<path d="M243.683 68.4406H254.907V79.712H243.683V68.4406Z" fill="#E75027"/>
<path d="M257.713 58.2294H267.358V62.4561H257.713V58.2294Z" fill="#D5292A"/>
<path d="M254.202 50.4791H264.022V53.1211H254.202V50.4791Z" fill="#F6A124"/>
<path d="M267.355 58.2294H274.195V60.1668H267.355V58.2294Z" fill="#6A95CD"/>
<path d="M254.202 38.3264H263.672V50.4784L254.202 50.4791V38.3264Z" fill="#3370B6"/>
<path d="M235.614 28.9941H254.028V47.1337H235.614V28.9941Z" fill="#74C7DC"/>
<path d="M224.916 28.9941H237.192V39.0324H224.916V28.9941Z" fill="#92C144"/>
<path d="M240.876 12.0862H261.744V29.1692H240.876V12.0862Z" fill="#5162AA"/>
<path d="M263.498 31.283H278.756V49.9511H263.498V31.283Z" fill="#199BD6"/>
<path d="M261.219 41.8524H274.196V58.4072H261.219V41.8524Z" fill="#F6A124"/>
<path d="M254.202 53.1226H263.847V62.6326H254.202V53.1226Z" fill="#D5292A"/>
<path d="M248.416 58.9343H260.867V65.8027H248.416V58.9343Z" fill="#1F9AA7"/>
<path d="M274.196 48.3655H276.827V56.6427H274.196V48.3655Z" fill="#A5BFDF"/>
<path d="M278.755 30.7544H285.77V35.1571H278.755V30.7544Z" fill="#3FB6AF"/>
<path d="M278.227 34.9786H283.313V37.7962H278.227V34.9786Z" fill="#AF2458"/>
<path d="M254.202 21.7731H263.672V38.5038H254.202V21.7731Z" fill="#7AC19A"/>
<path d="M263.498 15.08H276.3V31.2824L263.498 31.283V15.08Z" fill="#E5DF22"/>
<path d="M261.918 12.0862H271.213V27.2321H261.918V12.0862Z" fill="#34BBD0"/>
<path d="M274.372 26.8811H286.999V31.2838H274.372V26.8811Z" fill="#6BA8DB"/>
<path d="M276.297 17.0184H282.26V26.8808H276.297V17.0184Z" fill="#DF5297"/>
<path d="M280.51 20.1868H286.121V24.2376H280.51V20.1868Z" fill="#604696"/>
<path d="M279.108 24.2383H287V28.2891H279.108V24.2383Z" fill="#F9D805"/>
<path fill-rule="evenodd" clip-rule="evenodd" d="M261.747 7.50671H257.012V11.3812H261.747V7.50671ZM249.471 7.68162H240.878V17.1917H249.471V7.68162Z" fill="#5162AA"/>
<path d="M214.396 7.68433H241.052V29.1701H214.396V7.68433Z" fill="#16B9E7"/>
<path d="M228.073 0.286865H237.368V12.4385H228.073V0.286865Z" fill="#42AD4B"/>
<path d="M208.782 27.4084H225.968V34.1009H208.782V27.4084Z" fill="#E6B722"/>
<path d="M249.469 1.34399H256.133V12.0869H249.469V1.34399Z" fill="#B9CF36"/>
<path d="M258.415 41.8524H261.045V44.4941H258.415V41.8524Z" fill="#92C144"/>
</g>
<defs>
<clipPath id="clip0_1455_258">
<rect width="287" height="80" fill="white"/>
</clipPath>
</defs>
</svg>
