<svg width="340" height="80" viewBox="0 0 340 80" fill="none" xmlns="http://www.w3.org/2000/svg">
<g clip-path="url(#clip0_1455_295)">
<path fill-rule="evenodd" clip-rule="evenodd" d="M271.985 59.6881L282.199 20.3231H293.492C293.492 20.3231 296.356 20.0479 297.829 21.212C299.302 22.376 299.72 24.1749 299.72 24.1749L305.855 43.225L313.862 20.3234H324.79C324.79 20.3234 327.508 20.3234 328.917 21.424C330.325 22.5245 330.749 24.1753 330.749 24.1753L339.706 59.689H329.096L321.092 29.4185L312.692 52.4941H301.444C301.444 52.4941 300.089 52.6264 298.793 51.7533C297.498 50.8803 297.457 50.0813 297.457 50.0813L290.609 29.4197L282.753 59.6902L271.985 59.6881Z" fill="#2A0088"/>
<path fill-rule="evenodd" clip-rule="evenodd" d="M166.772 20.3181V28.17L185.723 29.4399V59.6837H196.668V29.4399L215.619 28.17V20.3181H166.772Z" fill="#2A0088"/>
<path fill-rule="evenodd" clip-rule="evenodd" d="M135.276 20.318L115.538 59.6831H127.671L131.119 52.445H153.126L156.495 59.6831H168.56L149.835 22.8996C149.835 22.8996 149.223 21.5448 148.162 20.9392C147.101 20.3337 145.984 20.3175 145.984 20.3175L135.276 20.318ZM141.977 28.8187L149.231 44.4454H134.611L141.977 28.8187Z" fill="#2A0088"/>
<path fill-rule="evenodd" clip-rule="evenodd" d="M73.856 20.3179V59.6829H107.177L111.719 50.6248H85.2742V20.3175L73.856 20.3179Z" fill="#2A0088"/>
<path fill-rule="evenodd" clip-rule="evenodd" d="M233.707 20.318L213.969 59.6831H226.102L229.55 52.445H251.557L254.926 59.6831H266.992L248.266 22.8996C248.266 22.8996 247.654 21.5448 246.593 20.9392C245.532 20.3337 244.415 20.3175 244.415 20.3175L233.707 20.318ZM240.409 28.8187L247.662 44.4454H233.042L240.409 28.8187Z" fill="#2A0088"/>
<path fill-rule="evenodd" clip-rule="evenodd" d="M6.02462 32.9687L14.7839 30.4737C14.7839 30.4737 14.6901 29.8903 14.376 29.604C14.0619 29.3176 13.497 29.1406 13.497 29.1406L1.32253 24.7307C1.32253 24.7307 0.936026 24.6011 0.653648 24.7571C0.37127 24.913 0.381292 25.3182 0.381292 25.3182V30.9638C0.381292 30.9638 0.350922 31.5044 1.13604 32.716C1.92117 33.9275 3.78091 33.6189 3.78091 33.6189L6.02462 32.9687Z" fill="#ED1651"/>
<path fill-rule="evenodd" clip-rule="evenodd" d="M40.895 19.347L49.0431 14.7949C49.0431 14.7949 49.1657 14.0083 48.8517 13.722C48.5376 13.4356 48.1636 13.3475 48.1636 13.3475L12.9743 0.825045C12.9743 0.825045 12.5878 0.695453 12.3054 0.851427C12.023 1.0074 12.033 1.41261 12.033 1.41261V6.28029C12.033 6.28029 12.0281 7.40816 12.8132 8.61972C13.5984 9.83126 14.8723 10.1449 14.8723 10.1449L40.895 19.347Z" fill="#ED1651"/>
<path fill-rule="evenodd" clip-rule="evenodd" d="M40.8949 33.5159L49.0429 29.3067C49.0429 29.3067 49.2165 28.2407 48.9024 27.9544C48.5884 27.6681 48.1635 27.5164 48.1635 27.5164L1.32242 10.5501C1.32242 10.5501 0.935914 10.4205 0.653535 10.5765C0.371157 10.7324 0.381179 11.1376 0.381179 11.1376V16.0053C0.381179 16.0053 0.376279 17.1332 1.1614 18.3447C1.94653 19.5563 3.2205 19.87 3.2205 19.87L40.8949 33.5159Z" fill="#ED1651"/>
<path fill-rule="evenodd" clip-rule="evenodd" d="M48.1635 13.3459C48.1635 13.3459 48.6391 13.4178 49.0425 13.8093C49.4459 14.2008 49.4504 14.679 49.4504 14.679V21.124C49.4504 21.124 49.431 22.0045 49.0688 22.7964C48.7066 23.5882 48.1762 23.7756 48.1762 23.7756L11.9061 36.9131C11.9061 36.9131 11.737 36.9652 11.517 36.9652C11.297 36.9652 11.1279 36.9131 11.1279 36.9131L1.32991 33.364C1.32991 33.364 1.08683 33.3076 0.741957 32.7689C0.353568 32.1644 0.381292 30.9638 0.381292 30.9638C0.381292 30.9638 0.442513 31.5796 0.791241 31.8718C1.13997 32.1639 2.06936 31.8434 2.06936 31.8434L47.0729 15.5425C47.0729 15.5425 48.8599 14.8155 48.8599 14.0769C48.8599 13.567 48.1636 13.3475 48.1636 13.3475L48.1635 13.3459Z" fill="#2A0088"/>
<path fill-rule="evenodd" clip-rule="evenodd" d="M48.1636 27.5148C48.1636 27.5148 48.6393 27.5867 49.0427 27.9782C49.4461 28.3697 49.4506 28.848 49.4506 28.848V35.2929C49.4506 35.2929 49.4312 36.1735 49.069 36.9653C48.7068 37.7572 48.1764 37.9445 48.1764 37.9445L11.9063 51.082V42.4471L47.0728 29.7093C47.0728 29.7093 48.8597 28.9824 48.8597 28.2438C48.8597 27.7338 48.1636 27.5148 48.1636 27.5148Z" fill="#2A0088"/>
<path fill-rule="evenodd" clip-rule="evenodd" d="M30.7069 50.1994C31.0435 50.5351 31.0435 51.2737 31.0435 51.2737V56.0931C31.0435 56.0931 31.0241 56.9736 30.6619 57.7655C30.2997 58.5573 29.7693 58.7447 29.7693 58.7447L11.9063 65.2152V56.5803L28.6656 50.5095C28.6656 50.5095 30.3703 49.8638 30.7069 50.1994Z" fill="#2A0088"/>
<path fill-rule="evenodd" clip-rule="evenodd" d="M19.8956 68.2211C20.2322 68.5567 20.2322 69.2953 20.2322 69.2953V74.1148C20.2322 74.1148 20.2128 74.9953 19.8506 75.7871C19.4884 76.579 18.958 76.7663 18.958 76.7663L17.8544 77.1661L11.9063 79.4273V70.7924L17.8544 68.5312C17.8544 68.5312 19.5591 67.8855 19.8956 68.2211Z" fill="#2A0088"/>
</g>
<defs>
<clipPath id="clip0_1455_295">
<rect width="340" height="80" fill="white"/>
</clipPath>
</defs>
</svg>
